<svg width="40" height="40" viewBox="0 0 40 40" fill="none" xmlns="http://www.w3.org/2000/svg">
<path d="M13.1667 33.3332C16.3477 34.965 20.0068 35.407 23.4849 34.5795C26.9629 33.7521 30.031 31.7096 32.1363 28.8202C34.2416 25.9308 35.2457 22.3844 34.9677 18.8202C34.6896 15.2559 33.1477 11.9082 30.6197 9.38024C28.0918 6.85227 24.744 5.31033 21.1798 5.03228C17.6155 4.75422 14.0692 5.75833 11.1797 7.86366C8.29032 9.96899 6.24786 13.0371 5.42041 16.5151C4.59296 19.9931 5.03494 23.6523 6.66671 26.8332L3.33337 36.6666L13.1667 33.3332Z" stroke="#17756B" stroke-width="2" stroke-linecap="round" stroke-linejoin="round"/>
<path d="M26.3334 15.3332C25.5545 14.5697 24.5074 14.1421 23.4167 14.1421C22.3261 14.1421 21.2789 14.5697 20.5001 15.3332L20.0001 15.9998L19.4167 15.4998C19.0346 15.0863 18.5702 14.7573 18.0533 14.5341C17.5364 14.3108 16.9785 14.1983 16.4155 14.2037C15.8525 14.2091 15.2968 14.3324 14.7843 14.5655C14.2718 14.7986 13.8137 15.1364 13.4397 15.5573C13.0656 15.9781 12.7838 16.4726 12.6124 17.0089C12.441 17.5452 12.3837 18.1115 12.4444 18.6712C12.505 19.231 12.6822 19.7719 12.9644 20.259C13.2467 20.7462 13.6279 21.1689 14.0834 21.4998L20.0834 27.3332L26.0834 21.4998C28.0834 19.4998 27.9167 16.9998 26.4167 15.3332" stroke="#17756B" stroke-width="2" stroke-linecap="round" stroke-linejoin="round"/>
</svg>
