<svg width="20" height="14" viewBox="0 0 20 14" fill="none" xmlns="http://www.w3.org/2000/svg">
<path d="M1.71833 7.28981C1.64888 7.10272 1.64888 6.89691 1.71833 6.70981C2.39475 5.06969 3.54293 3.66735 5.01731 2.68056C6.49169 1.69378 8.22587 1.16699 10 1.16699C11.7741 1.16699 13.5083 1.69378 14.9827 2.68056C16.4571 3.66735 17.6052 5.06969 18.2817 6.70981C18.3511 6.89691 18.3511 7.10272 18.2817 7.28981C17.6052 8.92993 16.4571 10.3323 14.9827 11.3191C13.5083 12.3058 11.7741 12.8326 10 12.8326C8.22587 12.8326 6.49169 12.3058 5.01731 11.3191C3.54293 10.3323 2.39475 8.92993 1.71833 7.28981Z" stroke="black" stroke-width="2" stroke-linecap="round" stroke-linejoin="round"/>
<path d="M10 9.5C11.3807 9.5 12.5 8.38071 12.5 7C12.5 5.61929 11.3807 4.5 10 4.5C8.61929 4.5 7.5 5.61929 7.5 7C7.5 8.38071 8.61929 9.5 10 9.5Z" stroke="black" stroke-width="2" stroke-linecap="round" stroke-linejoin="round"/>
</svg>
