<svg width="25" height="24" viewBox="0 0 25 24" fill="none" xmlns="http://www.w3.org/2000/svg">
<g clip-path="url(#clip0_3_6721)">
<path d="M9.07491 0.789433C6.67694 1.62131 4.60893 3.20024 3.17464 5.29431C1.74036 7.38838 1.01539 9.8872 1.10624 12.4237C1.19708 14.9603 2.09895 17.4008 3.67937 19.3869C5.25978 21.373 7.43544 22.8 9.88678 23.4582C11.8741 23.971 13.9563 23.9935 15.9543 23.5238C17.7643 23.1173 19.4376 22.2476 20.8105 21.0001C22.2394 19.662 23.2766 17.9597 23.8105 16.0763C24.3909 14.0282 24.4942 11.8743 24.1124 9.78006H12.9524V14.4094H19.4155C19.2864 15.1478 19.0096 15.8525 18.6017 16.4814C18.1938 17.1102 17.6633 17.6504 17.0418 18.0694C16.2526 18.5915 15.3629 18.9428 14.4299 19.1007C13.4942 19.2747 12.5344 19.2747 11.5987 19.1007C10.6503 18.9046 9.75309 18.5132 8.96428 17.9513C7.69706 17.0543 6.74555 15.7799 6.24553 14.3101C5.73706 12.8127 5.73706 11.1893 6.24553 9.69193C6.60146 8.64234 7.18985 7.68669 7.96678 6.89631C8.85589 5.97521 9.98153 5.3168 11.2202 4.99333C12.4589 4.66985 13.7627 4.6938 14.9887 5.06256C15.9464 5.35654 16.8221 5.87019 17.5462 6.56256C18.2749 5.83756 19.0024 5.11068 19.7287 4.38193C20.1037 3.99006 20.5124 3.61693 20.8818 3.21568C19.7766 2.1872 18.4793 1.38691 17.0643 0.860683C14.4875 -0.0749616 11.668 -0.100106 9.07491 0.789433Z" fill="white"/>
<path d="M9.07494 0.789367C11.6678 -0.100776 14.4873 -0.0762934 17.0643 0.858742C18.4796 1.38855 19.7763 2.19269 20.8799 3.22499C20.5049 3.62624 20.1093 4.00124 19.7268 4.39124C18.9993 5.11749 18.2724 5.84124 17.5462 6.56249C16.8221 5.87012 15.9464 5.35648 14.9887 5.06249C13.7631 4.69244 12.4593 4.66711 11.2203 4.98926C9.98135 5.31141 8.85502 5.96861 7.96494 6.88874C7.188 7.67912 6.59961 8.63477 6.24369 9.68437L2.35681 6.67499C3.74808 3.91604 6.15697 1.80566 9.07494 0.789367Z" fill="#E33629"/>
<path d="M1.32557 9.65605C1.53449 8.62067 1.88133 7.61798 2.35682 6.6748L6.2437 9.69168C5.73523 11.1891 5.73523 12.8124 6.2437 14.3098C4.9487 15.3098 3.65307 16.3148 2.35682 17.3248C1.16648 14.9554 0.803447 12.2557 1.32557 9.65605Z" fill="#F8BD00"/>
<path d="M12.9524 9.77832H24.1124C24.4942 11.8726 24.3909 14.0264 23.8106 16.0746C23.2766 17.958 22.2395 19.6602 20.8106 20.9983C19.5562 20.0196 18.2962 19.0483 17.0418 18.0696C17.6637 17.6501 18.1945 17.1094 18.6024 16.4798C19.0103 15.8503 19.2869 15.1448 19.4156 14.4058H12.9524C12.9506 12.8646 12.9524 11.3214 12.9524 9.77832Z" fill="#587DBD"/>
<path d="M2.35492 17.3251C3.65117 16.3251 4.94679 15.3201 6.24179 14.3101C6.74281 15.7804 7.69568 17.0549 8.96429 17.9513C9.75556 18.5106 10.6547 18.8988 11.6043 19.0913C12.54 19.2653 13.4998 19.2653 14.4355 19.0913C15.3685 18.9334 16.2582 18.5821 17.0474 18.0601C18.3018 19.0388 19.5618 20.0101 20.8162 20.9888C19.4435 22.237 17.7701 23.1073 15.9599 23.5144C13.9619 23.9841 11.8798 23.9616 9.89242 23.4488C8.32061 23.0291 6.85244 22.2893 5.57992 21.2757C4.23303 20.2063 3.13296 18.8588 2.35492 17.3251Z" fill="#319F43"/>
</g>
<defs>
<clipPath id="clip0_3_6721">
<rect width="24" height="24" fill="white" transform="translate(0.714294)"/>
</clipPath>
</defs>
</svg>
