<svg width="441" height="24" viewBox="0 0 441 24" fill="none" xmlns="http://www.w3.org/2000/svg">
<path d="M414.332 20.8444C415.042 19.7799 415.626 18.7885 416.085 17.8702C416.566 16.9518 417.025 15.8874 417.463 14.6769C418.945 15.5326 420.667 16.2005 422.629 16.6805C424.591 17.1606 426.417 17.4006 428.107 17.4006C429.84 17.4006 431.061 17.2545 431.77 16.9623C432.48 16.6492 432.835 16.3153 432.835 15.9605C432.835 14.6873 430.894 14.0507 427.012 14.0507C422.754 14.0507 419.665 13.6124 417.745 12.7358C415.825 11.8383 414.865 10.3982 414.865 8.41542C414.865 5.59778 416.033 3.52107 418.371 2.1853C420.708 0.849527 423.745 0.181641 427.481 0.181641C429.652 0.181641 431.875 0.463405 434.15 1.02693C436.446 1.56959 438.512 2.32096 440.349 3.28105C439.743 4.65857 439.107 6.33871 438.439 8.3215C438.314 8.73893 438.209 9.052 438.126 9.26072C437.061 8.40499 435.454 7.69536 433.304 7.13183C431.155 6.54743 429.255 6.25523 427.607 6.25523C425.624 6.25523 424.288 6.39089 423.599 6.66222C422.91 6.91268 422.566 7.28837 422.566 7.78928C422.566 8.2902 423.036 8.69719 423.975 9.01026C424.935 9.30246 426.312 9.44856 428.107 9.44856C432.532 9.44856 435.746 9.95991 437.75 10.9826C439.754 11.9844 440.756 13.5289 440.756 15.6161C440.756 18.5381 439.691 20.6461 437.562 21.9401C435.433 23.2133 432.209 23.8499 427.888 23.8499C425.572 23.8499 423.213 23.5994 420.813 23.0985C418.413 22.5767 416.252 21.8253 414.332 20.8444Z" fill="#36C9C9"/>
<path d="M411.834 8.38395C411.834 10.1998 411.385 11.7338 410.487 12.9861C409.611 14.2384 408.097 15.1463 405.948 15.7098C406.198 16.0438 406.376 16.3047 406.48 16.4925L411.552 23.5366H403.036C402.118 21.8252 400.667 19.4041 398.685 16.2734H394.082V23.5366H386.694C386.861 19.4876 386.944 15.6994 386.944 12.1721C386.944 8.64484 386.861 4.85668 386.694 0.807617H394.082V0.838924H400.5C404.716 0.838924 407.659 1.51725 409.329 2.87389C410.999 4.23053 411.834 6.06722 411.834 8.38395ZM394.082 6.8499V10.4189H398.309C400.083 10.4189 401.419 10.3667 402.316 10.2624C403.234 10.1371 403.871 9.94931 404.226 9.69885C404.581 9.44839 404.758 9.08314 404.758 8.6031C404.758 8.14393 404.591 7.78911 404.257 7.53866C403.923 7.2882 403.297 7.11079 402.379 7.00643C401.46 6.90208 400.104 6.8499 398.309 6.8499H394.082Z" fill="#36C9C9"/>
<path d="M366.933 17.8074C374.864 17.7657 380.614 17.6509 384.183 17.463C384.037 18.3188 383.943 19.2058 383.901 20.1241C383.881 21.0216 383.87 22.1591 383.87 23.5366H359.544C359.711 19.4876 359.795 15.6994 359.795 12.1721C359.795 8.64484 359.711 4.85668 359.544 0.807617H383.87V6.47421H366.933V9.4797C367.935 9.50057 369.417 9.51101 371.379 9.51101C374.697 9.51101 378.13 9.44839 381.679 9.32316V14.708C378.13 14.5828 374.697 14.5202 371.379 14.5202C369.417 14.5202 367.935 14.5306 366.933 14.5515V17.8074Z" fill="#36C9C9"/>
<path d="M357.025 7.38212C353.749 7.27776 350.566 7.21515 347.477 7.19428V23.5366H339.65V7.19428C336.54 7.21515 333.368 7.27776 330.133 7.38212V0.807617H357.025V7.38212Z" fill="#36C9C9"/>
<path d="M327.63 0.839111C327.484 4.36638 327.411 8.14411 327.411 12.1723C327.411 16.2214 327.484 20.0095 327.63 23.5368H316.422L308.845 6.44309L309.409 23.5368H301.363C301.53 19.4877 301.614 15.6996 301.614 12.1723C301.614 8.6659 301.53 4.88817 301.363 0.839111H312.884L320.492 18.4024L319.959 0.839111H327.63Z" fill="#36C9C9"/>
<path d="M291.097 0.776367H298.861V13.2366C298.819 16.3047 297.765 18.8406 295.699 20.8443C293.654 22.8479 290.199 23.8497 285.336 23.8497C280.411 23.8497 277.04 22.9001 275.224 21.0008C273.408 19.0806 272.521 16.5656 272.563 13.4558V0.776367H280.327V12.9549C280.327 13.8732 280.39 14.6246 280.515 15.209C280.661 15.7725 281.099 16.3047 281.83 16.8056C282.581 17.3065 283.781 17.557 285.43 17.557C287.225 17.557 288.54 17.3065 289.375 16.8056C290.21 16.2838 290.7 15.7099 290.846 15.0837C291.013 14.4576 291.097 13.654 291.097 12.6731V0.776367Z" fill="#36C9C9"/>
<path d="M270.059 0.807617C269.913 4.33489 269.84 8.12305 269.84 12.1721C269.84 16.2212 269.913 20.0093 270.059 23.5366H262.702V15.0211H251.181V23.5366H243.824C243.991 19.4876 244.074 15.6994 244.074 12.1721C244.074 8.64484 243.991 4.85668 243.824 0.807617H251.181V9.32316H262.702V0.807617H270.059Z" fill="#36C9C9"/>
<path d="M214.371 17.8074C222.302 17.7657 228.052 17.6509 231.621 17.463C231.475 18.3188 231.381 19.2058 231.34 20.1241C231.319 21.0216 231.308 22.1591 231.308 23.5366H206.983C207.15 19.4876 207.233 15.6994 207.233 12.1721C207.233 8.64484 207.15 4.85668 206.983 0.807617H231.308V6.47421H214.371V9.4797C215.373 9.50057 216.855 9.51101 218.817 9.51101C222.135 9.51101 225.569 9.44839 229.117 9.32316V14.708C225.569 14.5828 222.135 14.5202 218.817 14.5202C216.855 14.5202 215.373 14.5306 214.371 14.5515V17.8074Z" fill="#36C9C9"/>
<path d="M204.467 6.66206H187.436V9.94931C188.5 9.97018 190.097 9.98061 192.226 9.98061C195.899 9.98061 199.635 9.918 203.434 9.79277V15.929C199.635 15.7829 195.628 15.7098 191.412 15.7098C189.659 15.7098 188.333 15.7203 187.436 15.7411V23.5366H180.047C180.214 19.4876 180.298 15.6994 180.298 12.1721C180.298 8.64484 180.214 4.85668 180.047 0.807617H204.467V6.66206Z" fill="#36C9C9"/>
<path d="M170.268 23.5366C169.872 22.3469 169.339 20.8546 168.671 19.0597H158.684L157.119 23.5366H149.261L158.027 0.807617H169.548L178.377 23.5366H170.268ZM166.887 14.1758C166.094 11.9843 165.28 9.79277 164.445 7.60127L163.694 5.56631C162.963 7.46561 161.888 10.3354 160.469 14.1758H166.887Z" fill="#36C9C9"/>
<path d="M134.755 23.8497C130.038 23.8497 126.563 22.8478 124.329 20.8442C122.096 18.8405 120.979 15.9811 120.979 12.266C120.979 8.53003 122.096 5.57672 124.329 3.40609C126.563 1.23546 130.038 0.150146 134.755 0.150146C141.35 0.150146 145.764 2.4147 147.998 6.9438C146.119 7.59082 143.917 8.56134 141.392 9.85537C140.786 8.68656 139.826 7.8204 138.511 7.25687C137.217 6.69334 135.892 6.41158 134.535 6.41158C132.532 6.41158 131.04 6.9438 130.059 8.00824C129.078 9.05182 128.587 10.3458 128.587 11.8903C128.587 13.56 129.109 14.9271 130.152 15.9916C131.217 17.0351 132.834 17.5569 135.005 17.5569C136.737 17.5569 138.115 17.2752 139.138 16.7116C140.16 16.1272 140.912 15.2089 141.392 13.9566C143.103 14.8749 145.295 15.9081 147.966 17.056C146.923 19.5815 145.18 21.3451 142.738 22.3469C140.296 23.3488 137.635 23.8497 134.755 23.8497Z" fill="#36C9C9"/>
<path d="M101.103 0.838924C105.257 0.838924 108.147 1.57986 109.775 3.06173C111.403 4.52273 112.217 6.589 112.217 9.26055C112.217 11.0972 111.894 12.6626 111.247 13.9566C110.6 15.2298 109.462 16.2316 107.834 16.9621C106.206 17.6717 103.963 18.0266 101.103 18.0266H94.5915V23.5366H86.8899C87.0569 19.4876 87.1404 15.6994 87.1404 12.1721C87.1404 8.64484 87.0569 4.85668 86.8899 0.807617H94.5915V0.838924H101.103ZM98.9118 11.9843C100.644 11.9843 101.938 11.9217 102.794 11.7964C103.671 11.6503 104.276 11.3999 104.61 11.0451C104.965 10.6902 105.142 10.1685 105.142 9.4797C105.142 8.79094 104.975 8.27959 104.641 7.94565C104.328 7.59083 103.733 7.35081 102.857 7.22558C102.001 7.10036 100.686 7.03774 98.9118 7.03774H94.5915V11.9843H98.9118Z" fill="#36C9C9"/>
<path d="M70.4314 23.8497C65.6519 23.8497 62.135 22.8165 59.8809 20.7503C57.6268 18.6631 56.4998 15.7411 56.4998 11.9843C56.4998 8.26914 57.6164 5.36801 59.8496 3.28086C62.1037 1.19372 65.631 0.150146 70.4314 0.150146C75.2527 0.150146 78.78 1.19372 81.0133 3.28086C83.2674 5.36801 84.3944 8.26914 84.3944 11.9843C84.3944 15.762 83.2778 18.684 81.0446 20.7503C78.8113 22.8165 75.2736 23.8497 70.4314 23.8497ZM70.4314 17.463C72.7482 17.463 74.4179 17.0247 75.4406 16.1481C76.4633 15.2506 76.9746 13.8627 76.9746 11.9843C76.9746 10.1476 76.4633 8.78049 75.4406 7.88302C74.4179 6.98554 72.7482 6.53681 70.4314 6.53681C68.1356 6.53681 66.4763 6.98554 65.4536 7.88302C64.4309 8.78049 63.9196 10.1476 63.9196 11.9843C63.9196 13.8418 64.4309 15.2193 65.4536 16.1168C66.4763 17.0143 68.1356 17.463 70.4314 17.463Z" fill="#36C9C9"/>
<path d="M42.8912 0.838924C47.0446 0.838924 49.9353 1.57986 51.5633 3.06173C53.1912 4.52273 54.0052 6.589 54.0052 9.26055C54.0052 11.0972 53.6817 12.6626 53.0347 13.9566C52.3877 15.2298 51.2502 16.2316 49.6222 16.9621C47.9943 17.6717 45.7506 18.0266 42.8912 18.0266H36.3793V23.5366H28.6777C28.8447 19.4876 28.9282 15.6994 28.9282 12.1721C28.9282 8.64484 28.8447 4.85668 28.6777 0.807617H36.3793V0.838924H42.8912ZM40.6997 11.9843C42.432 11.9843 43.726 11.9217 44.5818 11.7964C45.4584 11.6503 46.0636 11.3999 46.3976 11.0451C46.7524 10.6902 46.9298 10.1685 46.9298 9.4797C46.9298 8.79094 46.7628 8.27959 46.4289 7.94565C46.1158 7.59083 45.521 7.35081 44.6444 7.22558C43.7887 7.10036 42.4738 7.03774 40.6997 7.03774H36.3793V11.9843H40.6997Z" fill="#36C9C9"/>
<path d="M16.3423 23.5366C15.3614 21.7625 13.7334 19.0493 11.4584 15.3968L7.79548 19.0284V23.5366H0C0.166971 19.4876 0.250457 15.6994 0.250457 12.1721C0.250457 8.64484 0.166971 4.85668 0 0.807617H7.79548V9.98061C11.6358 6.18201 14.37 3.12435 15.998 0.807617H26.1415L16.2797 10.5754C17.7407 12.6209 19.3791 14.8437 21.1949 17.2439C23.0316 19.6441 24.6909 21.7417 26.1728 23.5366H16.3423Z" fill="#36C9C9"/>
</svg>
