<svg width="154" height="40" viewBox="0 0 154 40" fill="none" xmlns="http://www.w3.org/2000/svg">
<rect width="154" height="40" rx="10" fill="#DFF8F5"/>
<path d="M45.5401 23.0001H41C40.4696 23.0001 39.9609 23.2108 39.5858 23.5859C39.2108 23.9609 39 24.4697 39 25.0001V29.5401M31 11.3401V13.0001C31 13.7957 31.3161 14.5588 31.8787 15.1214C32.4413 15.684 33.2044 16.0001 34 16.0001C34.5305 16.0001 35.0392 16.2108 35.4143 16.5859C35.7893 16.9609 36 17.4697 36 18.0001C36 19.1001 36.9 20.0001 38 20.0001C38.5305 20.0001 39.0392 19.7894 39.4143 19.4143C39.7893 19.0392 40 18.5305 40 18.0001C40 16.9001 40.9 16.0001 42 16.0001H45.17M35 29.9501V26.0001C35 25.4697 34.7893 24.9609 34.4143 24.5859C34.0392 24.2108 33.5305 24.0001 33 24.0001C32.4696 24.0001 31.9609 23.7894 31.5858 23.4143C31.2108 23.0392 31 22.5305 31 22.0001V21.0001C31 20.4697 30.7893 19.9609 30.4143 19.5859C30.0392 19.2108 29.5305 19.0001 29 19.0001H26.05" stroke="black" stroke-width="2" stroke-linecap="round" stroke-linejoin="round"/>
<path d="M36 30C41.5228 30 46 25.5228 46 20C46 14.4772 41.5228 10 36 10C30.4772 10 26 14.4772 26 20C26 25.5228 30.4772 30 36 30Z" stroke="black" stroke-width="2" stroke-linecap="round" stroke-linejoin="round"/>
<path d="M68.0781 12.8906V23.125H66.8438V17.7656H63.9375C63.6641 19.4766 62.2266 20.6406 60.3906 20.6406C58.3125 20.6406 56.7734 19.2109 56.7812 17.2031C56.7734 15.1875 58.3125 13.7891 60.3906 13.7812C62.2656 13.7891 63.7266 14.9844 63.9531 16.75H66.8438V12.8906H68.0781ZM57.9531 17.2031C57.9531 18.5859 58.9922 19.5625 60.3906 19.5781C61.7578 19.5625 62.7969 18.5859 62.7969 17.2031C62.7969 15.8281 61.7578 14.8672 60.3906 14.8594C58.9922 14.8672 57.9531 15.8281 57.9531 17.2031ZM59.1562 26.4688V22.0781H60.3906V25.4375H68.4688V26.4688H59.1562ZM74.125 13.9531C76.0156 13.9609 77.3828 15.5859 77.5703 18.1875H80.6875V12.875H81.9062V26.7969H80.6875V19.2031H77.5859C77.4531 21.9297 76.0625 23.6328 74.125 23.625C72.0703 23.6328 70.6328 21.7578 70.6406 18.7969C70.6328 15.8438 72.0703 13.9609 74.125 13.9531ZM71.8125 18.7969C71.8203 21.0547 72.7578 22.5391 74.125 22.5312C75.4844 22.5391 76.4375 21.0547 76.4375 18.7969C76.4375 16.5391 75.4844 15.0547 74.125 15.0469C72.7578 15.0547 71.8203 16.5391 71.8125 18.7969ZM99.7188 12.875V20.0938H98.4844V12.875H99.7188ZM88.4688 18.5781C89.0234 18.5781 89.625 18.5703 90.25 18.5625V14.8125H88.8594V13.8281H96.375V14.8125H94.9688V18.375C95.6875 18.3203 96.3906 18.25 97.0625 18.1719L97.125 19.0781C94.3438 19.4922 91.0781 19.6016 88.625 19.5938L88.4688 18.5781ZM90.625 21.75V20.7656H99.7188V24.0781H91.875V25.6094H100.25V26.6094H90.6719V23.1562H98.5V21.75H90.625ZM91.4375 18.5391C92.2031 18.5156 92.9922 18.4922 93.7812 18.4453V14.8125H91.4375V18.5391ZM113.578 12.875V26.7969H112.359V19.1406H109.422V18.125H112.359V12.875H113.578ZM102.703 23.4375V14.1562H109.188V15.1719H103.938V18.0625H108.578V19.0625H103.938V22.4219C106.484 22.4141 108.125 22.3438 110.031 22L110.172 23.0156C108.148 23.3438 106.453 23.4375 103.766 23.4375H102.703ZM127.359 12.8906V21.4375H126.141V12.8906H127.359ZM116.594 14.7969V13.7656H122.938V17.5781H117.812V19.5469C120.297 19.5469 122.148 19.4766 124.406 19.1094L124.547 20.125C122.211 20.5078 120.312 20.5703 117.75 20.5781H116.625V16.6094H121.719V14.7969H116.594ZM118.062 24.2344C118.055 22.6406 119.828 21.7188 122.75 21.7188C125.672 21.7188 127.453 22.6406 127.453 24.2344C127.453 25.8203 125.672 26.7344 122.75 26.7344C119.828 26.7344 118.055 25.8203 118.062 24.2344ZM119.266 24.2344C119.273 25.1875 120.586 25.7578 122.75 25.75C124.906 25.7578 126.227 25.1875 126.219 24.2344C126.227 23.2812 124.906 22.7031 122.75 22.7031C120.586 22.7031 119.273 23.2812 119.266 24.2344Z" fill="black"/>
</svg>
