<svg width="41" height="15" viewBox="0 0 41 15" fill="none" xmlns="http://www.w3.org/2000/svg">
<path d="M13.2812 12.0156V13.0469H0.5625V12.0156H6.28125V9.39062H2.15625V5.10938H10.4688V2.92188H2.125V1.90625H11.6719V6.10938H3.375V8.375H12V9.39062H7.48438V12.0156H13.2812ZM25.3438 2.35938V3.75C25.3438 5.5 25.3438 7.47656 24.8281 10.5L23.5781 10.375C24.1406 7.53125 24.1406 5.45312 24.1406 3.75V3.375H15.7656V2.35938H25.3438ZM14.3906 12.7188V11.7031H27.0469V12.7188H14.3906ZM39.6875 0.890625V11.0469H38.4688V0.890625H39.6875ZM28.5469 5.26562C28.5391 3.26562 30.1094 1.86719 32.1875 1.85938C34.2656 1.86719 35.8203 3.26562 35.8281 5.26562C35.8203 7.28906 34.2656 8.69531 32.1875 8.6875C30.1094 8.69531 28.5391 7.28906 28.5469 5.26562ZM29.75 5.26562C29.7344 6.64844 30.7812 7.60938 32.1875 7.60938C33.5703 7.60938 34.625 6.64844 34.625 5.26562C34.625 3.90625 33.5703 2.9375 32.1875 2.9375C30.7812 2.9375 29.7344 3.90625 29.75 5.26562ZM30.7188 14.4688V10.0156H31.9375V13.4375H40.125V14.4688H30.7188Z" fill="black"/>
</svg>
