<svg width="40" height="40" viewBox="0 0 40 40" fill="none" xmlns="http://www.w3.org/2000/svg">
<path d="M25 9.60653C24.4828 9.60653 23.9727 9.48617 23.51 9.25498L16.49 5.74498C16.0273 5.51378 15.5172 5.39342 15 5.39342M25 9.60653C25.5172 9.60653 26.0273 9.48617 26.49 9.25498L32.5883 6.20498C32.8426 6.07791 33.1252 6.01799 33.4092 6.03092C33.6931 6.04386 33.9691 6.12921 34.2108 6.27886C34.4525 6.42852 34.6518 6.6375 34.79 6.88595C34.9281 7.13439 35.0004 7.41404 35 7.69831V28.9716C34.9998 29.2811 34.9135 29.5844 34.7508 29.8475C34.588 30.1107 34.3551 30.3233 34.0783 30.4616L26.49 34.2566C26.0273 34.4878 25.5172 34.6082 25 34.6082M25 9.60653V34.6082M25 34.6082C24.4828 34.6082 23.9727 34.4878 23.51 34.2566L16.49 30.7466C16.0273 30.5154 15.5172 30.3951 15 30.3951C14.4828 30.3951 13.9727 30.5154 13.51 30.7466L7.41167 33.7966C7.15726 33.9238 6.87454 33.9837 6.59043 33.9707C6.30632 33.9577 6.03026 33.8722 5.78853 33.7223C5.5468 33.5725 5.34744 33.3633 5.20942 33.1146C5.07139 32.8659 4.9993 32.5861 5.00001 32.3016V11.03C5.00017 10.7205 5.08648 10.4173 5.24926 10.1541C5.41204 9.89094 5.64487 9.67829 5.92167 9.53998L13.51 5.74498C13.9727 5.51378 14.4828 5.39342 15 5.39342M15 5.39342V30.3933" stroke="#17756B" stroke-width="2" stroke-linecap="round" stroke-linejoin="round"/>
</svg>
