<svg width="40" height="40" viewBox="0 0 40 40" fill="none" xmlns="http://www.w3.org/2000/svg">
<path d="M9.66671 18.8333L3.33337 36.6666L21.1667 30.3499M6.66671 4.99992H6.68337M36.6667 13.3333H36.6834M25 3.33325H25.0167M36.6667 33.3333H36.6834M36.6667 3.33325L32.9334 4.58325C31.8707 4.93723 30.9639 5.64932 30.3681 6.59779C29.7722 7.54626 29.5243 8.67224 29.6667 9.78325C29.8334 11.2166 28.7167 12.4999 27.25 12.4999H26.6167C25.1834 12.4999 23.95 13.4999 23.6834 14.8999L23.3334 16.6666M36.6667 21.6666L35.3 21.1166C33.8667 20.5499 32.2667 21.4499 32 22.9666C31.8167 24.1333 30.8 24.9999 29.6167 24.9999H28.3334M18.3334 3.33325L18.8834 4.69992C19.45 6.13325 18.55 7.73325 17.0334 7.99992C15.8667 8.16659 15 9.19992 15 10.3833V11.6666" stroke="#17756B" stroke-width="2" stroke-linecap="round" stroke-linejoin="round"/>
<path d="M18.3334 21.6666C21.55 24.8833 23.05 28.6166 21.6667 29.9999C20.2834 31.3833 16.55 29.8833 13.3334 26.6666C10.1167 23.4499 8.6167 19.7166 10 18.3333C11.3834 16.9499 15.1167 18.4499 18.3334 21.6666Z" stroke="#17756B" stroke-width="2" stroke-linecap="round" stroke-linejoin="round"/>
</svg>
