<svg width="30" height="31" viewBox="0 0 30 31" fill="none" xmlns="http://www.w3.org/2000/svg">
<path d="M14.4061 3.36886C14.4608 3.25819 14.5455 3.16503 14.6504 3.09989C14.7553 3.03476 14.8763 3.00024 14.9998 3.00024C15.1233 3.00024 15.2443 3.03476 15.3492 3.09989C15.4542 3.16503 15.5388 3.25819 15.5936 3.36886L18.4811 9.21761C18.671 9.60276 18.9517 9.93598 19.2991 10.1886C19.6464 10.4412 20.0499 10.6056 20.4748 10.6676L26.9323 11.6126C27.0547 11.6303 27.1696 11.682 27.2642 11.7616C27.3587 11.8413 27.4291 11.9458 27.4673 12.0634C27.5056 12.1809 27.5101 12.3069 27.4805 12.4269C27.4509 12.5469 27.3883 12.6563 27.2998 12.7426L22.6298 17.2901C22.3216 17.5901 22.091 17.9605 21.9579 18.3695C21.8248 18.7785 21.7933 19.2137 21.8661 19.6376L22.9686 26.0626C22.9902 26.1849 22.9769 26.3108 22.9304 26.426C22.8839 26.5411 22.806 26.6409 22.7055 26.7139C22.605 26.7868 22.486 26.8301 22.3621 26.8387C22.2382 26.8474 22.1144 26.821 22.0048 26.7626L16.2323 23.7276C15.852 23.5277 15.4288 23.4232 14.9992 23.4232C14.5695 23.4232 14.1463 23.5277 13.7661 23.7276L7.99481 26.7626C7.88522 26.8206 7.76155 26.8467 7.63787 26.8379C7.51419 26.8291 7.39546 26.7858 7.29518 26.7129C7.1949 26.64 7.1171 26.5403 7.07063 26.4254C7.02416 26.3104 7.01088 26.1847 7.03231 26.0626L8.13356 19.6389C8.20652 19.2148 8.17511 18.7793 8.04204 18.3701C7.90897 17.9608 7.67825 17.5902 7.36981 17.2901L2.69981 12.7439C2.61055 12.6577 2.5473 12.5481 2.51726 12.4277C2.48722 12.3073 2.4916 12.1809 2.52991 12.0628C2.56821 11.9448 2.63889 11.8399 2.7339 11.7601C2.82892 11.6803 2.94444 11.6287 3.06731 11.6114L9.52356 10.6676C9.94895 10.6059 10.353 10.4417 10.7007 10.1891C11.0485 9.9365 11.3296 9.60308 11.5198 9.21761L14.4061 3.36886Z" stroke="#777777" stroke-width="2" stroke-linecap="round" stroke-linejoin="round"/>
</svg>
